<!DOCTYPE svg PUBLIC "-//W3C//DTD SVG 20010904//EN" "http://www.w3.org/TR/2001/REC-SVG-20010904/DTD/svg10.dtd">
<svg version="1.0" xmlns="http://www.w3.org/2000/svg" width="600px" height="600px" viewBox="0 0 6000 6000" preserveAspectRatio="xMidYMid meet">
<g id="layer101" fill="#dc153d" stroke="none">
 <path d="M2013 3510 c-150 -17 -297 -84 -356 -161 -56 -76 -96 -200 -97 -306 l0 -33 219 0 c218 0 219 0 225 23 3 12 6 33 6 47 0 71 76 123 145 100 71 -24 69 -10 75 -540 l5 -475 233 -3 232 -2 0 477 c0 521 -3 556 -57 656 -53 97 -162 170 -298 200 -89 20 -240 28 -332 17z"/>
 <path d="M3485 3510 c-235 -27 -399 -127 -480 -294 -60 -123 -70 -177 -70 -391 0 -187 1 -192 31 -275 77 -217 226 -340 474 -390 138 -29 370 -24 495 9 246 65 404 220 422 415 l6 66 -225 0 -225 0 -7 -38 c-7 -45 -54 -97 -111 -123 -47 -22 -157 -25 -217 -7 -56 17 -121 78 -149 140 -21 48 -23 68 -24 203 0 147 1 151 31 216 25 51 41 72 79 97 55 36 140 57 203 48 89 -12 192 -91 192 -147 0 -18 -11 -19 -150 -19 l-150 0 0 -134 c0 -130 1 -134 23 -140 29 -8 691 -8 711 0 14 5 16 48 16 375 l0 370 -132 -3 -131 -3 -15 -45 c-8 -25 -16 -46 -17 -48 -2 -2 -22 8 -44 22 -122 78 -349 118 -536 96z"/>
 </g>
<g id="layer102" fill="#ffffff" stroke="none">
 <path d="M0 3000 l0 -3000 3000 0 3000 0 0 3000 0 3000 -3000 0 -3000 0 0 -3000z m2345 493 c136 -30 245 -103 298 -200 54 -100 57 -135 57 -656 l0 -477 -232 2 -233 3 -5 475 c-6 530 -4 516 -75 540 -69 23 -145 -29 -145 -100 0 -14 -3 -35 -6 -47 -6 -23 -7 -23 -225 -23 l-219 0 0 33 c1 106 41 230 97 306 36 47 135 108 215 132 132 41 324 45 473 12z m1470 0 c85 -19 151 -44 206 -79 22 -14 42 -24 44 -22 1 2 9 23 17 48 l15 45 131 3 132 3 0 -370 c0 -327 -2 -370 -16 -375 -20 -8 -682 -8 -711 0 -22 6 -23 10 -23 140 l0 134 150 0 c139 0 150 1 150 19 0 56 -103 135 -192 147 -63 9 -148 -12 -203 -48 -38 -25 -54 -46 -79 -97 -30 -65 -31 -69 -31 -216 1 -135 3 -155 24 -203 28 -62 93 -123 149 -140 60 -18 170 -15 217 7 57 26 104 78 111 123 l7 38 225 0 225 0 -6 -66 c-18 -195 -176 -350 -422 -415 -125 -33 -357 -38 -495 -9 -248 50 -397 173 -474 390 -30 83 -31 88 -31 275 0 214 10 268 70 391 101 206 334 314 645 298 52 -3 127 -12 165 -21z"/>
 </g>

</svg>